<?xml version="1.0" encoding="utf-8"?><!-- Uploaded to: SVG Repo, www.svgrepo.com, Generator: SVG Repo Mixer Tools -->
<svg fill="#000000" width="800px" height="800px" viewBox="0 0 24 24" id="bedroom-7" data-name="Flat Line" xmlns="http://www.w3.org/2000/svg" class="icon flat-line"><polygon id="secondary" points="19 9 5 9 3 15 21 15 19 9" style="fill: rgb(44, 169, 188); stroke-width: 2;"></polygon><path id="primary" d="M5,19v2m14-2v2M5,4V9H19V4a1,1,0,0,0-1-1H6A1,1,0,0,0,5,4ZM21,18V15H3v3a1,1,0,0,0,1,1H20A1,1,0,0,0,21,18ZM19,9H5L3,15H21Z" style="fill: none; stroke: rgb(0, 0, 0); stroke-linecap: round; stroke-linejoin: round; stroke-width: 2;"></path></svg>